<?xml version="1.0" encoding="UTF-8"?>
<svg xmlns="http://www.w3.org/2000/svg" xmlns:xlink="http://www.w3.org/1999/xlink" width="300px" height="86px" viewBox="0 0 299 86" version="1.1">
<g id="surface1">
<path style=" stroke:none;fill-rule:nonzero;fill:rgb(25.882353%,11.764706%,52.54902%);fill-opacity:1;" d="M 0.0273438 0 L 298.972656 0 L 298.972656 86 L 0.0273438 86 Z M 0.0273438 0 "/>
<path style=" stroke:none;fill-rule:nonzero;fill:rgb(100%,100%,100%);fill-opacity:1;" d="M 67.375 25.722656 C 67.371094 25.707031 67.367188 25.691406 67.367188 25.675781 C 67.355469 25.601562 67.339844 25.53125 67.320312 25.460938 C 67.316406 25.449219 67.3125 25.433594 67.308594 25.421875 C 67.285156 25.34375 67.257812 25.265625 67.226562 25.191406 C 67.21875 25.175781 67.210938 25.160156 67.203125 25.144531 C 67.183594 25.105469 67.167969 25.070312 67.144531 25.03125 C 67.132812 25.011719 67.121094 24.992188 67.109375 24.972656 C 67.097656 24.949219 67.085938 24.933594 67.070312 24.910156 C 67.03125 24.847656 66.984375 24.789062 66.9375 24.730469 C 66.9375 24.726562 66.933594 24.71875 66.929688 24.714844 C 66.871094 24.652344 66.8125 24.589844 66.753906 24.535156 C 66.742188 24.523438 66.730469 24.515625 66.714844 24.503906 C 66.660156 24.457031 66.605469 24.410156 66.546875 24.371094 C 66.535156 24.363281 66.523438 24.355469 66.511719 24.347656 C 66.441406 24.300781 66.367188 24.257812 66.292969 24.222656 C 66.289062 24.21875 66.285156 24.214844 66.28125 24.214844 L 53.300781 17.972656 L 40.324219 11.734375 C 39.785156 11.476562 39.164062 11.476562 38.625 11.734375 L 25.644531 17.972656 L 12.667969 24.214844 C 12.660156 24.214844 12.65625 24.21875 12.652344 24.222656 C 12.578125 24.257812 12.503906 24.300781 12.433594 24.347656 C 12.421875 24.355469 12.410156 24.363281 12.398438 24.371094 C 12.339844 24.410156 12.285156 24.457031 12.230469 24.503906 C 12.214844 24.515625 12.203125 24.523438 12.191406 24.535156 C 12.132812 24.589844 12.070312 24.648438 12.019531 24.714844 C 12.011719 24.722656 12.007812 24.726562 12.003906 24.734375 C 11.957031 24.789062 11.914062 24.847656 11.875 24.910156 C 11.863281 24.929688 11.851562 24.953125 11.835938 24.972656 C 11.824219 24.992188 11.8125 25.011719 11.800781 25.03125 C 11.78125 25.066406 11.765625 25.105469 11.746094 25.140625 C 11.738281 25.160156 11.730469 25.175781 11.722656 25.191406 C 11.6875 25.269531 11.660156 25.34375 11.636719 25.421875 C 11.632812 25.4375 11.628906 25.449219 11.625 25.464844 C 11.609375 25.535156 11.59375 25.605469 11.582031 25.675781 C 11.578125 25.691406 11.574219 25.707031 11.574219 25.726562 C 11.5625 25.808594 11.554688 25.894531 11.554688 25.980469 C 11.554688 25.980469 11.554688 25.980469 11.554688 25.984375 L 11.554688 58.023438 C 11.554688 58.734375 11.941406 59.390625 12.566406 59.738281 L 25.171875 66.738281 C 25.285156 66.839844 25.40625 66.933594 25.542969 67.011719 L 38.523438 74.214844 C 38.523438 74.214844 38.523438 74.214844 38.527344 74.214844 C 38.59375 74.253906 38.667969 74.289062 38.742188 74.316406 C 38.753906 74.324219 38.765625 74.328125 38.777344 74.332031 C 38.835938 74.351562 38.898438 74.371094 38.957031 74.390625 C 38.976562 74.394531 38.996094 74.398438 39.015625 74.40625 C 39.074219 74.417969 39.128906 74.429688 39.1875 74.4375 C 39.207031 74.441406 39.226562 74.445312 39.246094 74.445312 C 39.320312 74.457031 39.394531 74.460938 39.472656 74.460938 C 39.550781 74.460938 39.625 74.453125 39.699219 74.445312 C 39.71875 74.445312 39.738281 74.441406 39.757812 74.4375 C 39.816406 74.429688 39.875 74.417969 39.929688 74.40625 C 39.949219 74.398438 39.96875 74.394531 39.988281 74.390625 C 40.050781 74.371094 40.109375 74.351562 40.167969 74.332031 C 40.179688 74.324219 40.195312 74.320312 40.207031 74.316406 C 40.28125 74.289062 40.351562 74.253906 40.421875 74.214844 L 53.402344 67.007812 C 53.539062 66.933594 53.664062 66.839844 53.773438 66.738281 L 66.382812 59.738281 C 67.003906 59.390625 67.390625 58.734375 67.390625 58.019531 L 67.390625 25.984375 C 67.390625 25.980469 67.390625 25.980469 67.390625 25.980469 C 67.390625 25.894531 67.386719 25.808594 67.375 25.722656 Z M 15.476562 29.316406 L 24.535156 34.34375 L 24.535156 45.910156 L 15.476562 40.878906 Z M 26.492188 21.917969 L 35.207031 26.109375 L 26.492188 30.945312 L 17.78125 26.109375 Z M 52.453125 21.917969 L 61.164062 26.109375 L 52.453125 30.945312 L 43.742188 26.109375 Z M 39.472656 54.203125 L 30.535156 49.242188 L 39.472656 44.277344 L 48.410156 49.242188 Z M 50.492188 45.910156 L 41.433594 40.878906 L 41.433594 29.316406 L 50.492188 34.34375 Z M 37.515625 40.878906 L 28.453125 45.910156 L 28.453125 34.34375 L 37.515625 29.316406 Z M 28.453125 52.570312 L 37.515625 57.601562 L 37.515625 69.167969 L 28.453125 64.136719 Z M 41.433594 57.601562 L 50.492188 52.574219 L 50.492188 64.136719 L 41.433594 69.167969 Z M 54.414062 45.910156 L 54.414062 34.34375 L 63.472656 29.316406 L 63.472656 40.878906 Z M 39.472656 15.679688 L 47.925781 19.742188 L 39.472656 23.804688 L 31.019531 19.742188 Z M 15.476562 45.367188 L 24.535156 50.394531 L 24.535156 61.894531 L 15.476562 56.867188 Z M 54.414062 61.898438 L 54.414062 50.394531 L 63.472656 45.367188 L 63.472656 56.867188 Z M 54.414062 61.898438 "/>
<path style=" stroke:none;fill-rule:nonzero;fill:rgb(100%,100%,100%);fill-opacity:1;" d="M 82.761719 45.789062 C 82.761719 46.609375 82.761719 47.339844 82.761719 47.980469 C 82.761719 48.597656 82.75 49.1875 82.722656 49.75 C 82.722656 50.316406 82.710938 50.878906 82.683594 51.441406 C 82.660156 52.007812 82.632812 52.636719 82.609375 53.328125 C 84.375 53.121094 85.757812 52.957031 86.757812 52.828125 C 87.757812 52.699219 88.539062 52.597656 89.101562 52.519531 C 89.691406 52.445312 90.140625 52.390625 90.445312 52.367188 C 90.78125 52.339844 91.164062 52.328125 91.597656 52.328125 C 92.726562 52.328125 93.289062 52.878906 93.289062 53.980469 C 93.289062 54.417969 93.058594 54.789062 92.597656 55.097656 C 92.164062 55.40625 91.597656 55.675781 90.90625 55.90625 C 90.242188 56.109375 89.484375 56.289062 88.640625 56.445312 C 87.820312 56.570312 87.015625 56.675781 86.21875 56.75 C 85.453125 56.804688 84.746094 56.839844 84.105469 56.867188 C 83.492188 56.894531 83.054688 56.90625 82.800781 56.90625 C 81.878906 56.90625 81.160156 56.855469 80.648438 56.75 C 80.136719 56.625 79.75 56.277344 79.496094 55.714844 C 79.238281 55.125 79.074219 54.238281 78.996094 53.058594 C 78.945312 51.878906 78.917969 50.210938 78.917969 48.058594 C 78.917969 45.980469 78.917969 44.132812 78.917969 42.519531 C 78.917969 40.902344 78.933594 39.453125 78.957031 38.171875 C 78.984375 36.890625 78.996094 35.75 78.996094 34.75 C 79.023438 33.75 79.058594 32.839844 79.113281 32.019531 C 79.164062 30.964844 79.34375 30.285156 79.648438 29.980469 C 79.957031 29.644531 80.339844 29.480469 80.800781 29.480469 C 81.058594 29.480469 81.277344 29.503906 81.457031 29.554688 C 81.660156 29.582031 81.839844 29.683594 81.992188 29.863281 C 82.148438 30.042969 82.261719 30.300781 82.339844 30.632812 C 82.441406 30.964844 82.503906 31.441406 82.53125 32.054688 C 82.632812 34.3125 82.699219 36.542969 82.722656 38.75 C 82.75 40.953125 82.761719 43.300781 82.761719 45.789062 Z M 112.15625 56.675781 C 111.746094 56.675781 111.414062 56.609375 111.15625 56.480469 C 110.925781 56.328125 110.746094 56.136719 110.617188 55.90625 C 110.492188 55.675781 110.402344 55.40625 110.351562 55.097656 C 110.296875 54.765625 110.261719 54.417969 110.234375 54.058594 C 109.59375 54.855469 108.761719 55.519531 107.738281 56.058594 C 106.738281 56.597656 105.457031 56.867188 103.894531 56.867188 C 102.894531 56.867188 101.871094 56.726562 100.820312 56.445312 C 99.796875 56.136719 98.859375 55.625 98.015625 54.90625 C 97.171875 54.160156 96.480469 53.175781 95.941406 51.941406 C 95.402344 50.710938 95.132812 49.160156 95.132812 47.289062 C 95.132812 45.828125 95.3125 44.457031 95.671875 43.171875 C 96.03125 41.890625 96.570312 40.777344 97.285156 39.828125 C 98.027344 38.851562 98.949219 38.082031 100.050781 37.519531 C 101.152344 36.953125 102.449219 36.671875 103.933594 36.671875 C 105.238281 36.671875 106.40625 36.914062 107.429688 37.402344 C 108.453125 37.863281 109.375 38.632812 110.195312 39.710938 C 110.195312 39.402344 110.210938 39.097656 110.234375 38.789062 C 110.261719 38.453125 110.324219 38.160156 110.425781 37.902344 C 110.554688 37.621094 110.746094 37.402344 111.003906 37.25 C 111.257812 37.070312 111.605469 36.980469 112.039062 36.980469 C 112.425781 36.980469 112.785156 37.132812 113.117188 37.441406 C 113.449219 37.75 113.640625 38.417969 113.691406 39.441406 C 113.769531 40.800781 113.820312 42.019531 113.847656 43.097656 C 113.898438 44.171875 113.921875 45.289062 113.921875 46.441406 C 113.921875 47.851562 113.910156 49.148438 113.886719 50.328125 C 113.859375 51.507812 113.796875 52.765625 113.691406 54.097656 C 113.640625 54.6875 113.566406 55.160156 113.460938 55.519531 C 113.386719 55.855469 113.28125 56.109375 113.15625 56.289062 C 113.027344 56.445312 112.875 56.546875 112.695312 56.597656 C 112.515625 56.648438 112.335938 56.675781 112.15625 56.675781 Z M 110.082031 46.902344 C 110.082031 45.570312 109.875 44.480469 109.464844 43.632812 C 109.082031 42.789062 108.582031 42.132812 107.96875 41.671875 C 107.378906 41.1875 106.738281 40.851562 106.046875 40.671875 C 105.355469 40.492188 104.714844 40.402344 104.125 40.402344 C 103.203125 40.402344 102.410156 40.570312 101.742188 40.902344 C 101.101562 41.238281 100.578125 41.699219 100.167969 42.289062 C 99.757812 42.851562 99.449219 43.53125 99.246094 44.328125 C 99.066406 45.097656 98.976562 45.941406 98.976562 46.867188 C 98.976562 49.121094 99.464844 50.789062 100.4375 51.867188 C 101.4375 52.945312 102.78125 53.480469 104.472656 53.480469 C 105.46875 53.480469 106.316406 53.316406 107.007812 52.980469 C 107.722656 52.621094 108.300781 52.148438 108.734375 51.558594 C 109.195312 50.96875 109.53125 50.277344 109.734375 49.480469 C 109.964844 48.660156 110.082031 47.800781 110.082031 46.902344 Z M 136.707031 49.980469 C 135.53125 47.390625 134.480469 44.890625 133.558594 42.480469 C 132.660156 40.042969 131.894531 37.878906 131.253906 35.980469 C 130.664062 39.160156 130.164062 42.367188 129.753906 45.597656 C 129.371094 48.828125 128.871094 51.917969 128.253906 54.867188 C 128.101562 55.535156 127.820312 55.980469 127.410156 56.214844 C 127 56.417969 126.65625 56.519531 126.371094 56.519531 C 125.910156 56.519531 125.539062 56.378906 125.257812 56.097656 C 125.003906 55.816406 124.875 55.457031 124.875 55.019531 C 124.875 54.429688 124.9375 53.535156 125.066406 52.328125 C 125.21875 51.097656 125.398438 49.710938 125.605469 48.171875 C 125.835938 46.636719 126.089844 45.019531 126.371094 43.328125 C 126.65625 41.632812 126.9375 40.007812 127.21875 38.441406 C 127.523438 36.851562 127.808594 35.414062 128.0625 34.132812 C 128.34375 32.851562 128.589844 31.863281 128.792969 31.171875 C 129.125 29.992188 129.804688 29.402344 130.828125 29.402344 C 131.445312 29.402344 131.96875 29.710938 132.40625 30.324219 C 132.839844 30.914062 133.300781 31.839844 133.789062 33.09375 C 134.300781 34.324219 134.902344 35.890625 135.59375 37.789062 C 136.3125 39.683594 137.234375 41.917969 138.359375 44.480469 C 139.460938 41.917969 140.347656 39.699219 141.011719 37.828125 C 141.703125 35.929688 142.28125 34.363281 142.742188 33.132812 C 143.226562 31.878906 143.6875 30.953125 144.125 30.363281 C 144.558594 29.75 145.097656 29.441406 145.738281 29.441406 C 146.328125 29.441406 146.777344 29.59375 147.082031 29.902344 C 147.390625 30.183594 147.621094 30.621094 147.773438 31.210938 C 147.953125 31.929688 148.171875 32.929688 148.429688 34.210938 C 148.683594 35.46875 148.953125 36.878906 149.234375 38.441406 C 149.542969 39.980469 149.835938 41.597656 150.117188 43.289062 C 150.398438 44.980469 150.65625 46.597656 150.886719 48.136719 C 151.117188 49.671875 151.296875 51.070312 151.425781 52.328125 C 151.578125 53.558594 151.65625 54.507812 151.65625 55.175781 C 151.65625 55.585938 151.515625 55.917969 151.234375 56.175781 C 150.949219 56.40625 150.59375 56.519531 150.15625 56.519531 C 149.875 56.519531 149.527344 56.417969 149.121094 56.214844 C 148.710938 55.980469 148.429688 55.535156 148.273438 54.867188 C 147.964844 53.40625 147.683594 51.890625 147.429688 50.328125 C 147.199219 48.761719 146.96875 47.1875 146.738281 45.597656 C 146.53125 43.980469 146.328125 42.378906 146.121094 40.789062 C 145.917969 39.171875 145.699219 37.570312 145.46875 35.980469 C 145.136719 37.003906 144.75 38.132812 144.316406 39.363281 C 143.882812 40.597656 143.417969 41.839844 142.933594 43.097656 C 142.445312 44.328125 141.945312 45.546875 141.433594 46.75 C 140.921875 47.957031 140.421875 49.046875 139.9375 50.019531 C 139.757812 50.351562 139.511719 50.609375 139.207031 50.789062 C 138.925781 50.941406 138.628906 51.019531 138.324219 51.019531 C 137.988281 51.019531 137.667969 50.941406 137.363281 50.789062 C 137.078125 50.609375 136.863281 50.339844 136.707031 49.980469 Z M 170.519531 56.675781 C 170.113281 56.675781 169.777344 56.609375 169.523438 56.480469 C 169.292969 56.328125 169.113281 56.136719 168.984375 55.90625 C 168.855469 55.675781 168.765625 55.40625 168.714844 55.097656 C 168.664062 54.765625 168.625 54.417969 168.601562 54.058594 C 167.960938 54.855469 167.128906 55.519531 166.101562 56.058594 C 165.105469 56.597656 163.824219 56.867188 162.261719 56.867188 C 161.261719 56.867188 160.238281 56.726562 159.1875 56.445312 C 158.160156 56.136719 157.226562 55.625 156.382812 54.90625 C 155.535156 54.160156 154.84375 53.175781 154.304688 51.941406 C 153.769531 50.710938 153.5 49.160156 153.5 47.289062 C 153.5 45.828125 153.679688 44.457031 154.039062 43.171875 C 154.394531 41.890625 154.933594 40.777344 155.652344 39.828125 C 156.394531 38.851562 157.316406 38.082031 158.417969 37.519531 C 159.519531 36.953125 160.8125 36.671875 162.296875 36.671875 C 163.605469 36.671875 164.769531 36.914062 165.796875 37.402344 C 166.820312 37.863281 167.742188 38.632812 168.5625 39.710938 C 168.5625 39.402344 168.574219 39.097656 168.601562 38.789062 C 168.625 38.453125 168.691406 38.160156 168.792969 37.902344 C 168.921875 37.621094 169.113281 37.402344 169.367188 37.25 C 169.625 37.070312 169.96875 36.980469 170.40625 36.980469 C 170.789062 36.980469 171.148438 37.132812 171.480469 37.441406 C 171.816406 37.75 172.007812 38.417969 172.058594 39.441406 C 172.136719 40.800781 172.1875 42.019531 172.210938 43.097656 C 172.261719 44.171875 172.289062 45.289062 172.289062 46.441406 C 172.289062 47.851562 172.277344 49.148438 172.25 50.328125 C 172.226562 51.507812 172.160156 52.765625 172.058594 54.097656 C 172.007812 54.6875 171.929688 55.160156 171.828125 55.519531 C 171.75 55.855469 171.648438 56.109375 171.519531 56.289062 C 171.390625 56.445312 171.238281 56.546875 171.058594 56.597656 C 170.878906 56.648438 170.699219 56.675781 170.519531 56.675781 Z M 168.445312 46.902344 C 168.445312 45.570312 168.242188 44.480469 167.832031 43.632812 C 167.449219 42.789062 166.949219 42.132812 166.332031 41.671875 C 165.742188 41.1875 165.105469 40.851562 164.410156 40.671875 C 163.71875 40.492188 163.078125 40.402344 162.492188 40.402344 C 161.570312 40.402344 160.773438 40.570312 160.109375 40.902344 C 159.46875 41.238281 158.941406 41.699219 158.53125 42.289062 C 158.125 42.851562 157.816406 43.53125 157.609375 44.328125 C 157.433594 45.097656 157.34375 45.941406 157.34375 46.867188 C 157.34375 49.121094 157.828125 50.789062 158.800781 51.867188 C 159.800781 52.945312 161.144531 53.480469 162.835938 53.480469 C 163.835938 53.480469 164.679688 53.316406 165.371094 52.980469 C 166.089844 52.621094 166.667969 52.148438 167.101562 51.558594 C 167.5625 50.96875 167.894531 50.277344 168.101562 49.480469 C 168.332031 48.660156 168.445312 47.800781 168.445312 46.902344 Z M 185.8125 40.132812 C 184.867188 40.132812 184.007812 40.289062 183.238281 40.597656 C 182.496094 40.902344 181.652344 41.363281 180.703125 41.980469 C 180.703125 42.519531 180.703125 43.3125 180.703125 44.367188 C 180.703125 45.390625 180.691406 46.519531 180.664062 47.75 C 180.640625 48.957031 180.613281 50.148438 180.589844 51.328125 C 180.5625 52.507812 180.511719 53.496094 180.433594 54.289062 C 180.382812 54.800781 180.320312 55.214844 180.242188 55.519531 C 180.191406 55.800781 180.101562 56.019531 179.972656 56.175781 C 179.871094 56.328125 179.71875 56.429688 179.511719 56.480469 C 179.332031 56.507812 179.089844 56.519531 178.78125 56.519531 C 178.476562 56.519531 178.21875 56.507812 178.015625 56.480469 C 177.835938 56.429688 177.679688 56.339844 177.554688 56.214844 C 177.425781 56.058594 177.324219 55.839844 177.246094 55.558594 C 177.167969 55.277344 177.105469 54.890625 177.054688 54.40625 C 177.003906 53.945312 176.949219 53.328125 176.898438 52.558594 C 176.875 51.789062 176.847656 50.957031 176.824219 50.058594 C 176.796875 49.136719 176.773438 48.210938 176.746094 47.289062 C 176.746094 46.339844 176.746094 45.46875 176.746094 44.671875 C 176.746094 43.367188 176.757812 42.300781 176.785156 41.480469 C 176.835938 40.660156 176.914062 39.929688 177.015625 39.289062 C 177.167969 38.210938 177.375 37.53125 177.628906 37.25 C 177.886719 36.96875 178.230469 36.828125 178.667969 36.828125 C 179.308594 36.828125 179.78125 37.003906 180.089844 37.363281 C 180.421875 37.722656 180.625 38.3125 180.703125 39.132812 C 181.652344 38.3125 182.664062 37.660156 183.738281 37.171875 C 184.839844 36.683594 185.96875 36.441406 187.121094 36.441406 C 188.222656 36.441406 189.222656 36.699219 190.117188 37.210938 C 191.039062 37.722656 191.796875 38.558594 192.382812 39.710938 C 192.742188 40.402344 193.011719 41.171875 193.191406 42.019531 C 193.371094 42.839844 193.5 43.710938 193.574219 44.636719 C 193.601562 45.046875 193.625 45.457031 193.652344 45.867188 C 193.679688 46.25 193.691406 46.671875 193.691406 47.136719 C 193.714844 47.570312 193.730469 48.070312 193.730469 48.636719 C 193.730469 49.199219 193.730469 49.867188 193.730469 50.636719 C 193.730469 51.457031 193.714844 52.226562 193.691406 52.945312 C 193.664062 53.660156 193.589844 54.289062 193.460938 54.828125 C 193.359375 55.339844 193.164062 55.75 192.882812 56.058594 C 192.601562 56.339844 192.21875 56.480469 191.730469 56.480469 C 190.554688 56.480469 189.9375 55.917969 189.886719 54.789062 C 189.886719 54.710938 189.886719 54.390625 189.886719 53.828125 C 189.886719 53.238281 189.875 52.558594 189.847656 51.789062 C 189.847656 51.019531 189.835938 50.238281 189.808594 49.441406 C 189.808594 48.648438 189.796875 47.996094 189.773438 47.480469 C 189.746094 47.070312 189.707031 46.636719 189.65625 46.171875 C 189.628906 45.6875 189.578125 45.199219 189.503906 44.710938 C 189.453125 44.222656 189.375 43.761719 189.273438 43.328125 C 189.167969 42.867188 189.042969 42.453125 188.886719 42.097656 C 188.527344 41.25 188.082031 40.710938 187.542969 40.480469 C 187.003906 40.25 186.429688 40.132812 185.8125 40.132812 Z M 201.566406 39.097656 C 201.617188 39.761719 201.632812 40.570312 201.605469 41.519531 C 201.605469 42.46875 201.617188 43.46875 201.644531 44.519531 C 201.695312 45.546875 201.785156 46.582031 201.914062 47.636719 C 202.042969 48.660156 202.257812 49.585938 202.566406 50.40625 C 202.898438 51.226562 203.347656 51.890625 203.910156 52.40625 C 204.5 52.917969 205.257812 53.175781 206.179688 53.175781 C 207.101562 53.175781 207.84375 52.917969 208.40625 52.40625 C 208.996094 51.890625 209.445312 51.226562 209.75 50.40625 C 210.085938 49.585938 210.316406 48.660156 210.445312 47.636719 C 210.570312 46.582031 210.648438 45.546875 210.675781 44.519531 C 210.726562 43.46875 210.738281 42.46875 210.710938 41.519531 C 210.710938 40.570312 210.738281 39.761719 210.789062 39.097656 C 210.890625 37.503906 211.546875 36.710938 212.75 36.710938 C 213.210938 36.710938 213.570312 36.839844 213.824219 37.09375 C 214.082031 37.351562 214.261719 37.710938 214.363281 38.171875 C 214.492188 38.632812 214.566406 39.183594 214.59375 39.828125 C 214.617188 40.46875 214.632812 41.1875 214.632812 41.980469 C 214.632812 43.621094 214.542969 45.328125 214.363281 47.097656 C 214.210938 48.839844 213.835938 50.441406 213.25 51.90625 C 212.683594 53.367188 211.839844 54.570312 210.710938 55.519531 C 209.585938 56.46875 208.074219 56.945312 206.179688 56.945312 C 204.28125 56.945312 202.773438 56.46875 201.644531 55.519531 C 200.515625 54.570312 199.660156 53.367188 199.070312 51.90625 C 198.507812 50.441406 198.136719 48.839844 197.957031 47.097656 C 197.800781 45.328125 197.726562 43.621094 197.726562 41.980469 C 197.726562 41.1875 197.738281 40.46875 197.765625 39.828125 C 197.789062 39.183594 197.851562 38.632812 197.957031 38.171875 C 198.082031 37.710938 198.277344 37.351562 198.53125 37.09375 C 198.789062 36.839844 199.148438 36.710938 199.609375 36.710938 C 200.8125 36.710938 201.464844 37.503906 201.566406 39.097656 Z M 234.074219 56.519531 C 232.640625 56.519531 231.488281 56.40625 230.617188 56.175781 C 229.746094 55.945312 229.066406 55.625 228.578125 55.214844 C 228.117188 54.777344 227.796875 54.25 227.617188 53.636719 C 227.464844 53.019531 227.351562 52.328125 227.273438 51.558594 C 227.195312 50.660156 227.132812 49.480469 227.082031 48.019531 C 227.054688 46.53125 227.042969 44.992188 227.042969 43.402344 C 227.042969 42.632812 227.042969 41.828125 227.042969 40.980469 C 227.066406 40.109375 227.082031 39.261719 227.082031 38.441406 C 227.105469 37.59375 227.132812 36.8125 227.15625 36.09375 C 227.183594 35.378906 227.222656 34.761719 227.273438 34.25 C 227.351562 33.453125 227.476562 32.734375 227.65625 32.09375 C 227.835938 31.453125 228.167969 30.902344 228.65625 30.441406 C 229.167969 29.980469 229.875 29.632812 230.769531 29.402344 C 231.691406 29.144531 232.910156 29.019531 234.421875 29.019531 C 237.851562 29.019531 240.414062 29.660156 242.105469 30.941406 C 243.820312 32.199219 244.679688 33.992188 244.679688 36.328125 C 244.679688 37.53125 244.410156 38.648438 243.871094 39.671875 C 243.359375 40.699219 242.464844 41.46875 241.183594 41.980469 C 241.898438 42.109375 242.554688 42.378906 243.140625 42.789062 C 243.730469 43.199219 244.230469 43.699219 244.640625 44.289062 C 245.074219 44.851562 245.394531 45.492188 245.601562 46.210938 C 245.832031 46.902344 245.945312 47.609375 245.945312 48.328125 C 245.945312 49.25 245.753906 50.199219 245.371094 51.175781 C 244.988281 52.121094 244.332031 52.996094 243.410156 53.789062 C 242.488281 54.585938 241.257812 55.238281 239.722656 55.75 C 238.210938 56.265625 236.328125 56.519531 234.074219 56.519531 Z M 242.105469 48.210938 C 242.105469 47.289062 241.886719 46.546875 241.453125 45.980469 C 241.042969 45.417969 240.503906 44.992188 239.835938 44.710938 C 239.171875 44.402344 238.429688 44.199219 237.609375 44.097656 C 236.789062 43.992188 235.96875 43.941406 235.148438 43.941406 C 234.507812 43.941406 233.84375 43.941406 233.152344 43.941406 C 232.460938 43.941406 231.820312 43.957031 231.230469 43.980469 C 231.207031 44.519531 231.179688 45.070312 231.152344 45.636719 C 231.128906 46.199219 231.101562 46.738281 231.078125 47.25 C 231.078125 47.738281 231.078125 48.171875 231.078125 48.558594 C 231.078125 48.917969 231.078125 49.171875 231.078125 49.328125 C 231.078125 50.019531 231.128906 50.597656 231.230469 51.058594 C 231.332031 51.519531 231.523438 51.890625 231.808594 52.175781 C 232.089844 52.457031 232.484375 52.660156 233 52.789062 C 233.535156 52.890625 234.214844 52.945312 235.035156 52.945312 C 237.289062 52.945312 239.03125 52.546875 240.261719 51.75 C 241.488281 50.957031 242.105469 49.777344 242.105469 48.210938 Z M 234.996094 32.671875 C 234.152344 32.671875 233.460938 32.75 232.921875 32.902344 C 232.410156 33.03125 232.011719 33.210938 231.730469 33.441406 C 231.472656 33.671875 231.292969 33.953125 231.191406 34.289062 C 231.117188 34.621094 231.078125 34.980469 231.078125 35.363281 L 231.078125 40.75 C 231.4375 40.777344 231.808594 40.789062 232.191406 40.789062 C 232.601562 40.789062 232.984375 40.789062 233.34375 40.789062 C 234.265625 40.789062 235.164062 40.722656 236.035156 40.597656 C 236.929688 40.46875 237.738281 40.25 238.453125 39.941406 C 239.171875 39.632812 239.746094 39.210938 240.183594 38.671875 C 240.617188 38.132812 240.835938 37.441406 240.835938 36.59375 C 240.835938 35.441406 240.363281 34.503906 239.414062 33.789062 C 238.492188 33.042969 237.019531 32.671875 234.996094 32.671875 Z M 258.320312 37.019531 C 259.78125 37.019531 261.085938 37.25 262.238281 37.710938 C 263.390625 38.148438 264.363281 38.773438 265.160156 39.597656 C 265.980469 40.417969 266.605469 41.417969 267.042969 42.597656 C 267.476562 43.777344 267.695312 45.097656 267.695312 46.558594 C 267.695312 48.171875 267.4375 49.621094 266.925781 50.90625 C 266.441406 52.1875 265.75 53.277344 264.851562 54.175781 C 263.980469 55.070312 262.929688 55.765625 261.699219 56.25 C 260.496094 56.738281 259.175781 56.980469 257.742188 56.980469 C 256.179688 56.980469 254.796875 56.714844 253.59375 56.175781 C 252.414062 55.636719 251.417969 54.90625 250.597656 53.980469 C 249.800781 53.058594 249.199219 51.996094 248.789062 50.789062 C 248.378906 49.585938 248.175781 48.316406 248.175781 46.980469 C 248.175781 45.519531 248.40625 44.1875 248.867188 42.980469 C 249.355469 41.75 250.03125 40.699219 250.902344 39.828125 C 251.800781 38.929688 252.875 38.238281 254.132812 37.75 C 255.386719 37.261719 256.78125 37.019531 258.320312 37.019531 Z M 257.898438 53.445312 C 258.945312 53.445312 259.84375 53.265625 260.585938 52.90625 C 261.328125 52.519531 261.929688 52.019531 262.390625 51.40625 C 262.878906 50.789062 263.226562 50.097656 263.429688 49.328125 C 263.660156 48.53125 263.777344 47.710938 263.777344 46.867188 C 263.777344 45.992188 263.660156 45.1875 263.429688 44.441406 C 263.226562 43.671875 262.890625 43.007812 262.429688 42.441406 C 261.996094 41.878906 261.417969 41.441406 260.703125 41.132812 C 260.011719 40.800781 259.175781 40.632812 258.203125 40.632812 C 257.207031 40.632812 256.335938 40.800781 255.589844 41.132812 C 254.847656 41.46875 254.222656 41.929688 253.707031 42.519531 C 253.222656 43.082031 252.851562 43.761719 252.59375 44.558594 C 252.339844 45.351562 252.210938 46.210938 252.210938 47.136719 C 252.210938 49.007812 252.683594 50.53125 253.632812 51.710938 C 254.605469 52.867188 256.027344 53.445312 257.898438 53.445312 Z M 278.453125 49.828125 C 277.300781 51.03125 276.316406 52.070312 275.496094 52.945312 C 274.699219 53.789062 274.023438 54.496094 273.457031 55.058594 C 272.894531 55.597656 272.421875 55.996094 272.035156 56.25 C 271.679688 56.507812 271.34375 56.636719 271.039062 56.636719 C 270.679688 56.636719 270.320312 56.480469 269.960938 56.175781 C 269.628906 55.867188 269.460938 55.535156 269.460938 55.175781 C 269.460938 54.867188 269.679688 54.40625 270.117188 53.789062 C 270.550781 53.148438 271.089844 52.445312 271.730469 51.675781 C 272.371094 50.90625 273.0625 50.109375 273.804688 49.289062 C 274.546875 48.441406 275.226562 47.648438 275.839844 46.902344 C 275.019531 45.957031 274.238281 45.03125 273.496094 44.132812 C 272.78125 43.238281 272.152344 42.402344 271.613281 41.632812 C 271.074219 40.863281 270.640625 40.1875 270.308594 39.597656 C 270 39.007812 269.847656 38.542969 269.847656 38.210938 C 269.847656 37.878906 270.011719 37.59375 270.347656 37.363281 C 270.679688 37.109375 270.988281 36.980469 271.269531 36.980469 C 271.5 36.980469 271.894531 37.238281 272.460938 37.75 C 273.023438 38.238281 273.652344 38.839844 274.34375 39.558594 C 275.058594 40.25 275.777344 40.992188 276.492188 41.789062 C 277.238281 42.582031 277.902344 43.289062 278.492188 43.902344 C 279.054688 43.289062 279.683594 42.597656 280.375 41.828125 C 281.09375 41.03125 281.796875 40.289062 282.488281 39.597656 C 283.179688 38.902344 283.820312 38.3125 284.410156 37.828125 C 285 37.339844 285.460938 37.09375 285.792969 37.09375 C 286.074219 37.09375 286.355469 37.199219 286.636719 37.402344 C 286.917969 37.609375 287.058594 37.878906 287.058594 38.210938 C 287.058594 38.542969 286.894531 39.007812 286.5625 39.597656 C 286.253906 40.1875 285.832031 40.863281 285.292969 41.632812 C 284.753906 42.402344 284.113281 43.238281 283.371094 44.132812 C 282.65625 45.03125 281.886719 45.957031 281.066406 46.902344 C 281.707031 47.621094 282.398438 48.40625 283.140625 49.25 C 283.882812 50.070312 284.574219 50.878906 285.214844 51.675781 C 285.855469 52.445312 286.382812 53.148438 286.792969 53.789062 C 287.226562 54.40625 287.445312 54.867188 287.445312 55.175781 C 287.445312 55.535156 287.265625 55.867188 286.90625 56.175781 C 286.574219 56.480469 286.226562 56.636719 285.871094 56.636719 C 285.535156 56.636719 285.089844 56.429688 284.523438 56.019531 C 283.988281 55.585938 283.371094 55.046875 282.679688 54.40625 C 282.015625 53.738281 281.308594 53.007812 280.566406 52.210938 C 279.847656 51.390625 279.144531 50.597656 278.453125 49.828125 Z M 278.453125 49.828125 "/>
</g>
</svg>
